<svg xmlns="http://www.w3.org/2000/svg" shape-rendering="geometricPrecision" text-rendering="geometricPrecision" image-rendering="optimizeQuality" fill-rule="evenodd" clip-rule="evenodd" viewBox="0 0 512 480.22"><path fill="#221E1F" fill-rule="nonzero" d="M511.19 117.8c-2.2 24.83-8.33 45.54-18.33 62.18-5.99 9.97-13.22 18.4-21.68 25.3l.09.39c10.99 58.3 20.65 93.79-15.9 162.82-21.21 38.96-52.25 67.32-88.07 85.79-36.71 18.92-78.45 27.26-119.54 25.78-41.13-1.49-81.87-12.79-116.55-33.15-34.06-20-62.44-48.76-80.07-85.64-14.75-30.84-17.96-61.88-17.1-93.05.6-21.9 2.46-42.94 6.45-63.73-15.34-13.31-26.16-29.73-32.85-49-8.62-24.81-9.75-53.26-4.39-84.87 1.63-9.61 4.31-18.34 7.87-26.22 8.86-19.59 22.4-32.03 38.76-38.76C64.76-.47 81.2-1.34 97.86 1.7c11.75 2.15 23.93 6.43 35.84 12.23 7.1 3.46 14.23 7.54 21.35 12.18 2.18 1.42 4.32 2.86 6.42 4.32 29.98-9.09 60.6-14.35 92.04-14.81 31.71-.47 64.02 4.01 97.03 14.44 4.89-3.53 9.97-6.83 15.27-9.9 10.82-6.26 22.32-11.32 34.62-14.87C414.95 1.08 428.16-.24 440.07.9c18.32 1.75 33.13 9.01 44.74 20.48 10.87 10.72 18.28 24.67 22.6 40.77 4.46 16.54 5.55 35.63 3.78 55.65z"/><path fill="#E8E9EB" d="M444.14 185.45c13.18 69.41 28.46 101.65-7.6 171.45-74.22 143.71-306.78 127.97-366.02-5.83-23.7-53.53-13.89-108.98-3.85-164.86 6.3-25.71 16.36-49.01 29.91-70.08 83.73-130.2 311.12-105.55 347.56 69.32z"/><path d="M255.22 302.76c23.68 0 42.87 4.72 42.87 16.19 0 9.91-14.32 21.61-33.48 24.61.1.62.14 1.26.1 1.91-.4 7.06 1.58 12.25 4.94 15.67 2.64 2.7 6.25 4.48 10.29 5.34 4.37.93 9.2.8 13.92-.38 8.3-2.07 16.15-7.34 20.5-15.68a8.6 8.6 0 0111.61-3.65c4.22 2.2 5.85 7.4 3.65 11.62-6.83 13.08-18.89 21.29-31.57 24.46-7.25 1.81-14.77 1.99-21.69.51-7.24-1.54-13.88-4.91-19-10.13-.46-.46-.9-.94-1.33-1.43-.43.49-.87.97-1.32 1.43-5.13 5.22-11.77 8.59-19.01 10.13-6.91 1.48-14.43 1.3-21.68-.51-12.69-3.17-24.75-11.38-31.58-24.46a8.618 8.618 0 013.65-11.62c4.21-2.2 9.42-.57 11.62 3.65 4.35 8.34 12.19 13.61 20.49 15.68 4.72 1.18 9.56 1.31 13.92.38 4.04-.86 7.65-2.64 10.3-5.34 3.35-3.42 5.33-8.61 4.93-15.67a8.53 8.53 0 01.07-1.68c-19.96-2.59-35.07-14.66-35.07-24.84 0-11.47 19.19-16.19 42.87-16.19z"/><path fill="#424244" fill-rule="nonzero" d="M484.57 112.34c-1.5 16.92-5.68 31.03-12.49 42.36-3.24 5.41-7.02 10.14-11.33 14.22-8.54-48.43-39.92-90.35-84.31-117.3 2.93-2.05 5.95-3.99 9.08-5.8 7.37-4.27 15.21-7.71 23.59-10.13 9.89-2.87 18.89-3.77 27.01-2.99 12.47 1.19 22.57 6.14 30.48 13.95 7.4 7.3 12.45 16.81 15.4 27.77 3.03 11.28 3.78 24.28 2.57 37.92zM23.14 112.34c1.5 16.92 5.68 31.03 12.49 42.36 3.24 5.41 7.02 10.14 11.33 14.22 8.54-48.43 39.92-90.35 84.31-117.3-2.93-2.05-5.95-3.99-9.08-5.8-7.37-4.27-15.21-7.71-23.59-10.13-9.9-2.87-18.89-3.77-27.01-2.99-12.48 1.19-22.57 6.14-30.48 13.95-7.4 7.3-12.45 16.81-15.4 27.77-3.03 11.28-3.78 24.28-2.57 37.92z"/><path fill="#221E1F" d="M180.31 106.08c40.72-23.35 66.73-3.69 56.54 41.47-2.83 12.71-6.93 25.13-12.5 37.23-13.85 30.08-25.8 36.78-28.1 65.75-1.92 24.05 13.44 44.73-25.04 56.63-42.59 13.17-83.45-36.19-82.95-76.6.59-47.71 47.64-94.52 92.05-124.48z"/><path fill="#fff" d="M153.49 194.21c.82-23.09 28.8-43.41 43.85-32.12 12.28 9.2 10.79 27.32 3.73 40.8-15.74 30.05-48.6 19.68-47.58-8.68z"/><circle cx="188.06" cy="174.73" r="15.93"/><path fill="#221E1F" d="M339.4 111.28c-38.53-22.09-63.13-3.49-53.5 39.24 2.68 12.03 6.57 23.78 11.83 35.22 13.11 28.47 24.41 34.81 26.59 62.22 1.82 22.75-12.72 42.32 23.69 53.58 40.3 12.47 78.96-34.24 78.49-72.47-.56-45.15-45.08-89.44-87.1-117.79z"/><path fill="#fff" d="M364.92 191.59c-.78-21.86-27.25-41.07-41.49-30.4-11.62 8.71-10.21 25.85-3.53 38.6 14.9 28.44 45.98 18.62 45.02-8.2z"/><circle cx="332.96" cy="172.67" r="15.07"/></svg>